Pixel-5x5.sfdir
StartChar: quotedbl
Encoding: 34 34 5
Width: 768
GlyphClass: 2
Flags: W
LayerCount: 2
Fore
SplineSet
384 640 m 1,0,-1
 512 640 l 1,1,-1
 512 384 l 1,2,-1
 384 384 l 1,3,-1
 384 640 l 1,0,-1
128 640 m 1,4,-1
 256 640 l 1,5,-1
 256 384 l 1,6,-1
 128 384 l 1,7,-1
 128 640 l 1,4,-1
EndSplineSet
EndChar
StartChar: numbersign
Encoding: 35 35 6
Width: 768
GlyphClass: 2
Flags: W
LayerCount: 2
Fore
SplineSet
512 256 m 1,0,-1
 640 256 l 1,1,-1
 640 128 l 1,2,-1
 512 128 l 1,3,-1
 512 256 l 1,0,-1
256 256 m 1,4,-1
 384 256 l 1,5,-1
 384 128 l 1,6,-1
 256 128 l 1,7,-1
 256 256 l 1,4,-1
0 256 m 1,8,-1
 128 256 l 1,9,-1
 128 128 l 1,10,-1
 0 128 l 1,11,-1
 0 256 l 1,8,-1
512 512 m 1,12,-1
 640 512 l 1,13,-1
 640 384 l 1,14,-1
 512 384 l 1,15,-1
 512 512 l 1,12,-1
256 512 m 1,16,-1
 384 512 l 1,17,-1
 384 384 l 1,18,-1
 256 384 l 1,19,-1
 256 512 l 1,16,-1
0 512 m 1,20,-1
 128 512 l 1,21,-1
 128 384 l 1,22,-1
 0 384 l 1,23,-1
 0 512 l 1,20,-1
384 640 m 1,24,-1
 512 640 l 1,25,-1
 512 0 l 1,26,-1
 384 0 l 1,27,-1
 384 640 l 1,24,-1
128 640 m 1,28,-1
 256 640 l 1,29,-1
 256 0 l 1,30,-1
 128 0 l 1,31,-1
 128 640 l 1,28,-1
EndSplineSet
EndChar
StartChar: percent
Encoding: 37 37 8
Width: 768
GlyphClass: 2
Flags: W
LayerCount: 2
Fore
SplineSet
384 256 m 1,0,-1
 640 256 l 1,1,-1
 640 0 l 1,2,-1
 384 0 l 1,3,-1
 384 256 l 1,0,-1
384 0 m 1024,4,-1
0 640 m 1,5,-1
 256 640 l 1,6,-1
 256 384 l 1,7,-1
 0 384 l 1,8,-1
 0 640 l 1,5,-1
0 384 m 1024,9,-1
384 384 m 1024,10,-1
512 640 m 1,11,-1
 640 640 l 1,12,-1
 640 512 l 1,13,-1
 512 512 l 1,14,-1
 512 640 l 1,11,-1
384 512 m 1,15,-1
 512 512 l 1,16,-1
 512 384 l 1,17,-1
 384 384 l 1,18,-1
 384 512 l 1,15,-1
128 128 m 1,19,-1
 128 0 l 1,20,-1
 0 0 l 1,21,-1
 0 128 l 1,22,-1
 128 128 l 1,19,-1
256 384 m 1,23,-1
 384 384 l 1,24,-1
 384 256 l 1,25,-1
 256 256 l 1,26,-1
 256 384 l 1,23,-1
128 256 m 1,27,-1
 256 256 l 1,28,-1
 256 128 l 1,29,-1
 128 128 l 1,30,-1
 128 256 l 1,27,-1
EndSplineSet
EndChar
StartChar: parenleft
Encoding: 40 40 10
Width: 768
GlyphClass: 2
Flags: W
LayerCount: 2
Fore
SplineSet
384 512 m 1,0,-1
 384 640 l 1,1,-1
 512 640 l 1,2,-1
 512 512 l 1,3,-1
 384 512 l 1,0,-1
256 128 m 1,4,-1
 256 512 l 1,5,-1
 384 512 l 1,6,-1
 384 128 l 1,7,-1
 256 128 l 1,4,-1
384 128 m 1,8,-1
 512 128 l 1,9,-1
 512 0 l 1,10,-1
 384 0 l 1,11,-1
 384 128 l 1,8,-1
EndSplineSet
EndChar
StartChar: plus
Encoding: 43 43 12
Width: 784
GlyphClass: 2
Flags: W
LayerCount: 2
Fore
SplineSet
384 384 m 1,0,-1
 640 384 l 1,1,-1
 640 256 l 1,2,-1
 384 256 l 1,3,-1
 384 384 l 1,0,-1
0 384 m 1,4,-1
 256 384 l 1,5,-1
 256 256 l 1,6,-1
 0 256 l 1,7,-1
 0 384 l 1,4,-1
256 640 m 1,8,-1
 384 640 l 1,9,-1
 384 0 l 1,10,-1
 256 0 l 1,11,-1
 256 640 l 1,8,-1
EndSplineSet
EndChar
StartChar: comma
Encoding: 44 44 13
Width: 640
GlyphClass: 2
Flags: W
LayerCount: 2
Fore
SplineSet
256 256 m 1,0,-1
 384 256 l 1,1,-1
 384 0 l 1,2,-1
 256 0 l 1,3,-1
 256 256 l 1,0,-1
EndSplineSet
EndChar
StartChar: hyphen
Encoding: 45 45 14
Width: 768
GlyphClass: 2
Flags: W
LayerCount: 2
Fore
SplineSet
128 384 m 1,0,-1
 512 384 l 1,1,-1
 512 256 l 1,2,-1
 128 256 l 1,3,-1
 128 384 l 1,0,-1
EndSplineSet
EndChar
StartChar: period
Encoding: 46 46 15
Width: 640
GlyphClass: 2
Flags: W
LayerCount: 2
Fore
SplineSet
256 128 m 1,0,-1
 384 128 l 1,1,-1
 384 0 l 1,2,-1
 256 0 l 1,3,-1
 256 128 l 1,0,-1
EndSplineSet
EndChar
StartChar: slash
Encoding: 47 47 16
Width: 1024
GlyphClass: 2
Flags: W
LayerCount: 2
Fore
SplineSet
384 384 m 1024,0,-1
512 640 m 1,1,-1
 640 640 l 1,2,-1
 640 512 l 1,3,-1
 512 512 l 1,4,-1
 512 640 l 1,1,-1
384 512 m 1,5,-1
 512 512 l 1,6,-1
 512 384 l 1,7,-1
 384 384 l 1,8,-1
 384 512 l 1,5,-1
128 128 m 1,9,-1
 128 0 l 1,10,-1
 0 0 l 1,11,-1
 0 128 l 1,12,-1
 128 128 l 1,9,-1
256 384 m 1,13,-1
 384 384 l 1,14,-1
 384 256 l 1,15,-1
 256 256 l 1,16,-1
 256 384 l 1,13,-1
128 256 m 1,17,-1
 256 256 l 1,18,-1
 256 128 l 1,19,-1
 128 128 l 1,20,-1
 128 256 l 1,17,-1
EndSplineSet
EndChar
StartChar: zero
Encoding: 48 48 17
Width: 768
GlyphClass: 2
Flags: W
LayerCount: 2
Fore
SplineSet
128 0 m 1,0,-1
 128 128 l 1,1,-1
 512 128 l 1,2,-1
 512 0 l 1,3,-1
 128 0 l 1,0,-1
0 128 m 1,4,-1
 0 512 l 1,5,-1
 128 512 l 1,6,-1
 128 128 l 1,7,-1
 0 128 l 1,4,-1
512 128 m 1,8,-1
 512 512 l 1,9,-1
 640 512 l 1,10,-1
 640 128 l 1,11,-1
 512 128 l 1,8,-1
128 512 m 1,12,-1
 128 640 l 1,13,-1
 512 640 l 1,14,-1
 512 512 l 1,15,-1
 128 512 l 1,12,-1
EndSplineSet
EndChar
StartChar: one
Encoding: 49 49 18
Width: 768
GlyphClass: 2
Flags: W
LayerCount: 2
Fore
SplineSet
128 0 m 1,0,-1
 128 512 l 1,1,-1
 0 512 l 1,2,-1
 0 640 l 1,3,-1
 256 640 l 1,4,-1
 256 0 l 1,5,-1
 128 0 l 1,0,-1
EndSplineSet
EndChar
StartChar: four
Encoding: 52 52 21
Width: 768
GlyphClass: 2
Flags: W
LayerCount: 2
Fore
SplineSet
384 0 m 1,0,-1
 384 256 l 1,1,-1
 0 256 l 1,2,-1
 0 640 l 1,3,-1
 128 640 l 1,4,-1
 128 384 l 1,5,-1
 384 384 l 1,6,-1
 384 640 l 1,7,-1
 512 640 l 1,8,-1
 512 0 l 1,9,-1
 384 0 l 1,0,-1
EndSplineSet
EndChar
StartChar: less
Encoding: 60 60 29
Width: 768
GlyphClass: 2
Flags: W
LayerCount: 2
Fore
SplineSet
384 128 m 1,0,-1
 512 128 l 1,1,-1
 512 0 l 1,2,-1
 384 0 l 1,3,-1
 384 128 l 1,0,-1
256 256 m 1,4,-1
 384 256 l 1,5,-1
 384 128 l 1,6,-1
 256 128 l 1,7,-1
 256 256 l 1,4,-1
384 640 m 1,8,-1
 512 640 l 1,9,-1
 512 512 l 1,10,-1
 384 512 l 1,11,-1
 384 640 l 1,8,-1
256 512 m 1,12,-1
 384 512 l 1,13,-1
 384 384 l 1,14,-1
 256 384 l 1,15,-1
 256 512 l 1,12,-1
128 384 m 1,16,-1
 256 384 l 1,17,-1
 256 256 l 1,18,-1
 128 256 l 1,19,-1
 128 384 l 1,16,-1
EndSplineSet
EndChar
StartChar: equal
Encoding: 61 61 30
Width: 768
GlyphClass: 2
Flags: W
LayerCount: 2
Fore
SplineSet
128 512 m 1,0,-1
 512 512 l 1,1,-1
 512 384 l 1,2,-1
 128 384 l 1,3,-1
 128 512 l 1,0,-1
128 256 m 1,4,-1
 512 256 l 1,5,-1
 512 128 l 1,6,-1
 128 128 l 1,7,-1
 128 256 l 1,4,-1
EndSplineSet
EndChar
StartChar: greater
Encoding: 62 62 31
Width: 768
GlyphClass: 2
Flags: W
LayerCount: 2
Fore
SplineSet
128 640 m 1,0,-1
 256 640 l 1,1,-1
 256 512 l 1,2,-1
 128 512 l 1,3,-1
 128 640 l 1,0,-1
256 512 m 1,4,-1
 384 512 l 1,5,-1
 384 384 l 1,6,-1
 256 384 l 1,7,-1
 256 512 l 1,4,-1
384 384 m 1,8,-1
 512 384 l 1,9,-1
 512 256 l 1,10,-1
 384 256 l 1,11,-1
 384 384 l 1,8,-1
256 256 m 1,12,-1
 384 256 l 1,13,-1
 384 128 l 1,14,-1
 256 128 l 1,15,-1
 256 256 l 1,12,-1
128 128 m 1,16,-1
 256 128 l 1,17,-1
 256 0 l 1,18,-1
 128 0 l 1,19,-1
 128 128 l 1,16,-1
EndSplineSet
EndChar
StartChar: question
Encoding: 63 63 32
Width: 768
GlyphClass: 2
Flags: W
LayerCount: 2
Fore
SplineSet
384 640 m 1024,0,-1
256 640 m 1,1,-1
 384 640 l 1,2,-1
 384 512 l 1,3,-1
 256 512 l 1,4,-1
 256 640 l 1,1,-1
384 640 m 1,5,-1
 512 640 l 1,6,-1
 512 384 l 1,7,-1
 384 384 l 1,8,-1
 384 640 l 1,5,-1
256 384 m 1,9,-1
 384 384 l 1,10,-1
 384 256 l 1,11,-1
 256 256 l 1,12,-1
 256 384 l 1,9,-1
256 128 m 1,13,-1
 384 128 l 1,14,-1
 384 0 l 1,15,-1
 256 0 l 1,16,-1
 256 128 l 1,13,-1
EndSplineSet
EndChar
StartChar: A
Encoding: 65 65 33
Width: 768
GlyphClass: 2
Flags: W
LayerCount: 2
Fore
SplineSet
128 512 m 1,0,-1
 128 640 l 1,1,-1
 512 640 l 1,2,-1
 512 512 l 1,3,-1
 128 512 l 1,0,-1
0 0 m 1,4,-1
 0 512 l 1,5,-1
 128 512 l 1,6,-1
 128 384 l 1,7,-1
 512 384 l 1,8,-1
 512 512 l 1,9,-1
 640 512 l 1,10,-1
 640 0 l 1,11,-1
 512 0 l 1,12,-1
 512 256 l 1,13,-1
 128 256 l 1,14,-1
 128 0 l 1,15,-1
 0 0 l 1,4,-1
EndSplineSet
EndChar
StartChar: B
Encoding: 66 66 34
Width: 768
GlyphClass: 2
Flags: W
LayerCount: 2
Fore
SplineSet
512 128 m 1024,0,-1
512 512 m 1,1,-1
 640 512 l 1,2,-1
 640 384 l 1,3,-1
 512 384 l 1,4,-1
 512 512 l 1,1,-1
512 512 m 1,5,-1
 512 640 l 1,6,-1
 0 640 l 1,7,-1
 0 0 l 1,8,-1
 512 0 l 1,9,-1
 512 128 l 1,10,-1
 128 128 l 1,11,-1
 128 256 l 1,12,-1
 512 256 l 1,13,-1
 512 384 l 1,14,-1
 128 384 l 1,15,-1
 128 512 l 1,16,-1
 512 512 l 1,5,-1
512 128 m 1,17,-1
 512 256 l 1,18,-1
 640 256 l 1,19,-1
 640 128 l 1,20,-1
 512 128 l 1,17,-1
EndSplineSet
EndChar
StartChar: D
Encoding: 68 68 36
Width: 768
GlyphClass: 2
Flags: W
LayerCount: 2
Fore
SplineSet
512 128 m 1,0,-1
 512 512 l 1,1,-1
 640 512 l 1,2,-1
 640 128 l 1,3,-1
 512 128 l 1,0,-1
0 0 m 1,4,-1
 0 640 l 1,5,-1
 512 640 l 1,6,-1
 512 512 l 1,7,-1
 128 512 l 1,8,-1
 128 128 l 1,9,-1
 512 128 l 1,10,-1
 512 0 l 1,11,-1
 0 0 l 1,4,-1
EndSplineSet
EndChar
StartChar: H
Encoding: 72 72 40
Width: 768
GlyphClass: 2
Flags: W
LayerCount: 2
Fore
SplineSet
0 0 m 1,0,-1
 0 640 l 1,1,-1
 128 640 l 1,2,-1
 128 384 l 1,3,-1
 512 384 l 1,4,-1
 512 640 l 1,5,-1
 640 640 l 1,6,-1
 640 0 l 1,7,-1
 512 0 l 1,8,-1
 512 256 l 1,9,-1
 128 256 l 1,10,-1
 128 0 l 1,11,-1
 0 0 l 1,0,-1
EndSplineSet
EndChar
StartChar: L
Encoding: 76 76 44
Width: 768
GlyphClass: 2
Flags: W
LayerCount: 2
Fore
SplineSet
0 0 m 1,0,-1
 0 640 l 1,1,-1
 128 640 l 1,2,-1
 128 128 l 1,3,-1
 640 128 l 1,4,-1
 640 0 l 1,5,-1
 0 0 l 1,0,-1
EndSplineSet
EndChar
StartChar: T
Encoding: 84 84 52
Width: 768
GlyphClass: 2
Flags: W
LayerCount: 2
Fore
SplineSet
256 0 m 1,0,-1
 256 512 l 1,1,-1
 0 512 l 1,2,-1
 0 640 l 1,3,-1
 640 640 l 1,4,-1
 640 512 l 1,5,-1
 384 512 l 1,6,-1
 384 0 l 1,7,-1
 256 0 l 1,0,-1
EndSplineSet
EndChar
StartChar: U
Encoding: 85 85 53
Width: 768
GlyphClass: 2
Flags: W
LayerCount: 2
Fore
SplineSet
0 0 m 1,0,-1
 0 640 l 1,1,-1
 128 640 l 1,2,-1
 128 128 l 1,3,-1
 512 128 l 1,4,-1
 512 640 l 1,5,-1
 640 640 l 1,6,-1
 640 0 l 1,7,-1
 0 0 l 1,0,-1
EndSplineSet
EndChar
StartChar: bracketright
Encoding: 93 93 61
Width: 768
GlyphClass: 2
Flags: W
LayerCount: 2
Fore
SplineSet
256 512 m 1,0,-1
 256 640 l 1,1,-1
 512 640 l 1,2,-1
 512 512 l 1,3,-1
 256 512 l 1,0,-1
384 128 m 1,4,-1
 384 512 l 1,5,-1
 512 512 l 1,6,-1
 512 128 l 1,7,-1
 384 128 l 1,4,-1
256 128 m 1,8,-1
 512 128 l 1,9,-1
 512 0 l 1,10,-1
 256 0 l 1,11,-1
 256 128 l 1,8,-1
EndSplineSet
EndChar
StartChar: asciicircum
Encoding: 94 94 62
Width: 768
GlyphClass: 2
Flags: W
LayerCount: 2
Fore
SplineSet
384 512 m 1,0,-1
 512 512 l 1,1,-1
 512 384 l 1,2,-1
 384 384 l 1,3,-1
 384 512 l 1,0,-1
256 640 m 1,4,-1
 384 640 l 1,5,-1
 384 512 l 1,6,-1
 256 512 l 1,7,-1
 256 640 l 1,4,-1
128 512 m 1,8,-1
 256 512 l 1,9,-1
 256 384 l 1,10,-1
 128 384 l 1,11,-1
 128 512 l 1,8,-1
EndSplineSet
EndChar
StartChar: underscore
Encoding: 95 95 63
Width: 768
GlyphClass: 2
Flags: W
LayerCount: 2
Fore
SplineSet
0 128 m 1,0,-1
 640 128 l 1,1,-1
 640 0 l 1,2,-1
 0 0 l 1,3,-1
 0 128 l 1,0,-1
EndSplineSet
EndChar
StartChar: grave
Encoding: 96 96 64
Width: 768
GlyphClass: 2
Flags: W
LayerCount: 2
Fore
SplineSet
128 640 m 1,0,-1
 256 640 l 1,1,-1
 256 512 l 1,2,-1
 128 512 l 1,3,-1
 128 640 l 1,0,-1
256 512 m 1,4,-1
 384 512 l 1,5,-1
 384 384 l 1,6,-1
 256 384 l 1,7,-1
 256 512 l 1,4,-1
EndSplineSet
EndChar
StartChar: e
Encoding: 101 101 69
Width: 768
GlyphClass: 2
Flags: W
LayerCount: 2
Fore
SplineSet
0 0 m 1,0,-1
 0 640 l 1,1,-1
 640 640 l 1,2,-1
 640 512 l 1,3,-1
 128 512 l 1,4,-1
 128 384 l 1,5,-1
 512 384 l 1,6,-1
 512 256 l 1,7,-1
 128 256 l 1,8,-1
 128 128 l 1,9,-1
 640 128 l 1,10,-1
 640 0 l 1,11,-1
 0 0 l 1,0,-1
EndSplineSet
EndChar
StartChar: j
Encoding: 106 106 74
Width: 768
GlyphClass: 2
Flags: W
LayerCount: 2
Fore
SplineSet
0 0 m 1,0,-1
 0 256 l 1,1,-1
 128 256 l 1,2,-1
 128 128 l 1,3,-1
 256 128 l 1,4,-1
 256 512 l 1,5,-1
 0 512 l 1,6,-1
 0 640 l 1,7,-1
 640 640 l 1,8,-1
 640 512 l 1,9,-1
 384 512 l 1,10,-1
 384 0 l 1,11,-1
 0 0 l 1,0,-1
EndSplineSet
EndChar
StartChar: bar
Encoding: 124 124 92
Width: 768
GlyphClass: 2
Flags: W
LayerCount: 2
Fore
SplineSet
256 640 m 1,0,-1
 384 640 l 1,1,-1
 384 0 l 1,2,-1
 256 0 l 1,3,-1
 256 640 l 1,0,-1
EndSplineSet
EndChar
StartChar: braceright
Encoding: 125 125 93
Width: 768
GlyphClass: 2
Flags: W
LayerCount: 2
Fore
SplineSet
382 512 m 1,0,-1
 510 512 l 1,1,-1
 510 384 l 1,2,-1
 382 384 l 1,3,-1
 382 512 l 1,0,-1
510 384 m 1024,4,-1
382 384 m 1024,5,-1
510 384 m 1,6,-1
 638 384 l 1,7,-1
 638 256 l 1,8,-1
 510 256 l 1,9,-1
 510 384 l 1,6,-1
638 256 m 1024,10,-1
382 256 m 1,11,-1
 510 256 l 1,12,-1
 510 128 l 1,13,-1
 382 128 l 1,14,-1
 382 256 l 1,11,-1
254 512 m 1,15,-1
 254 640 l 1,16,-1
 510 640 l 1,17,-1
 510 512 l 1,18,-1
 254 512 l 1,15,-1
510 512 m 1024,19,-1
254 128 m 1,20,-1
 510 128 l 1,21,-1
 510 0 l 1,22,-1
 254 0 l 1,23,-1
 254 128 l 1,20,-1
EndSplineSet
EndChar
StartChar: .notdef
Encoding: 65536 -1 0
Width: 0
Flags: W
LayerCount: 2
Fore
SplineSet
320 90 m 1,0,-1
 320 192 l 1,1,-1
 218 192 l 1,2,-1
 218 90 l 1,3,-1
 320 90 l 1,0,-1
421 209 m 1,4,-1
 421 311 l 1,5,-1
 218 311 l 1,6,-1
 218 209 l 1,7,-1
 421 209 l 1,4,-1
320 328 m 1,8,-1
 320 430 l 1,9,-1
 218 430 l 1,10,-1
 218 328 l 1,11,-1
 320 328 l 1,8,-1
421 447 m 1,12,-1
 421 548 l 1,13,-1
 320 548 l 2,14,15
 277 548 277 548 248 519 c 0,16,17
 218 488 218 488 218 447 c 1,18,-1
 421 447 l 1,12,-1
0 0 m 1,19,-1
 0 640 l 1,20,-1
 640 640 l 1,21,-1
 640 0 l 1,22,-1
 0 0 l 1,19,-1
EndSplineSet
EndChar
